<svg xmlns="http://www.w3.org/2000/svg" width="420" height="208" viewBox="0 0 420 208" role="img" aria-labelledby="title desc">
<title id="title">Atividade pública de Pcthelab</title>
<desc id="desc">40 contribuições em 14 dias ativos entre 2026-07-03 e 2026-09-24. Cada barra representa sete dias. Inclui commits e outras contribuições contabilizadas pelo GitHub.</desc>
<rect width="420" height="208" rx="8" fill="#0d1117"/>
<g font-family="'Courier New',monospace">
<text x="24" y="30" font-size="11" fill="#8b949e"><tspan fill="#b0ed8c">&gt;</tspan> activity.log</text>
<text x="24" y="72" font-size="30" fill="#e6edf3">40</text>
<text x="130" y="60" font-size="12" fill="#8b949e">contribuições</text>
<text x="130" y="80" font-size="11" fill="#6e7681">14 dias ativos / 12 semanas</text>
<rect x="24" y="141.88235294117646" width="20" height="25.11764705882353" rx="2" fill="#648f56"><title>03/07–09/07: 7 contribuições</title></rect>
<rect x="55" y="165" width="20" height="2" rx="2" fill="#212a33"><title>10/07–16/07: 0 contribuições</title></rect>
<rect x="86" y="165" width="20" height="2" rx="2" fill="#212a33"><title>17/07–23/07: 0 contribuições</title></rect>
<rect x="117" y="165" width="20" height="2" rx="2" fill="#212a33"><title>24/07–30/07: 0 contribuições</title></rect>
<rect x="148" y="165" width="20" height="2" rx="2" fill="#212a33"><title>31/07–06/08: 0 contribuições</title></rect>
<rect x="179" y="165" width="20" height="2" rx="2" fill="#212a33"><title>07/08–13/08: 0 contribuições</title></rect>
<rect x="210" y="165" width="20" height="2" rx="2" fill="#212a33"><title>14/08–20/08: 0 contribuições</title></rect>
<rect x="241" y="163" width="20" height="4" rx="2" fill="#648f56"><title>21/08–27/08: 1 contribuições</title></rect>
<rect x="272" y="159.8235294117647" width="20" height="7.176470588235294" rx="2" fill="#648f56"><title>28/08–03/09: 2 contribuições</title></rect>
<rect x="303" y="123.94117647058823" width="20" height="43.05882352941177" rx="2" fill="#648f56"><title>04/09–10/09: 12 contribuições</title></rect>
<rect x="334" y="106" width="20" height="61" rx="2" fill="#648f56"><title>11/09–17/09: 17 contribuições</title></rect>
<rect x="365" y="163" width="20" height="4" rx="2" fill="#b0ed8c"><title>18/09–24/09: 1 contribuições</title></rect>
<text x="24" y="190" font-size="10" fill="#6e7681">03/07</text>
<text x="385" y="190" text-anchor="end" font-size="10" fill="#6e7681">24/09</text>
</g></svg>
