<svg xmlns="http://www.w3.org/2000/svg" width="840" height="180" viewBox="0 0 840 180" role="img" aria-labelledby="title desc">
<title id="title">Atividade pública de Pcthelab</title>
<desc id="desc">33 contribuições em 12 dias ativos entre 2026-07-06 e 2026-09-27. Cada barra representa sete dias. Inclui commits e outras contribuições contabilizadas pelo GitHub.</desc>
<rect width="840" height="180" rx="8" fill="#0a0e13"/>
<g font-family="'Courier New',monospace">
<text x="40" y="30" font-size="11" fill="#8b949e"><tspan fill="#67e8f9">&gt;</tspan> activity.log</text>
<text x="40" y="83" font-size="36" fill="#e6edf3">33</text>
<text x="40" y="107" font-size="12" fill="#8b949e">contribuições</text>
<text x="40" y="128" font-size="11" fill="#8494a7">12 dias ativos / 12 semanas</text>
<rect x="336" y="124" width="26" height="2" rx="2" fill="#17242d"><title>06/07–12/07: 0 contribuições</title></rect>
<rect x="374" y="124" width="26" height="2" rx="2" fill="#17242d"><title>13/07–19/07: 0 contribuições</title></rect>
<rect x="412" y="124" width="26" height="2" rx="2" fill="#17242d"><title>20/07–26/07: 0 contribuições</title></rect>
<rect x="450" y="124" width="26" height="2" rx="2" fill="#17242d"><title>27/07–02/08: 0 contribuições</title></rect>
<rect x="488" y="124" width="26" height="2" rx="2" fill="#17242d"><title>03/08–09/08: 0 contribuições</title></rect>
<rect x="526" y="124" width="26" height="2" rx="2" fill="#17242d"><title>10/08–16/08: 0 contribuições</title></rect>
<rect x="564" y="124" width="26" height="2" rx="2" fill="#17242d"><title>17/08–23/08: 0 contribuições</title></rect>
<rect x="602" y="115.0909090909091" width="26" height="10.909090909090908" rx="2" fill="#357b8a"><title>24/08–30/08: 3 contribuições</title></rect>
<rect x="640" y="124" width="26" height="2" rx="2" fill="#17242d"><title>31/08–06/09: 0 contribuições</title></rect>
<rect x="678" y="46" width="26" height="80" rx="2" fill="#357b8a"><title>07/09–13/09: 22 contribuições</title></rect>
<rect x="716" y="96.9090909090909" width="26" height="29.090909090909093" rx="2" fill="#357b8a"><title>14/09–20/09: 8 contribuições</title></rect>
<rect x="754" y="124" width="26" height="2" rx="2" fill="#17242d"><title>21/09–27/09: 0 contribuições</title></rect>
<text x="336" y="149" font-size="10" fill="#8494a7">06/07</text>
<text x="780" y="149" text-anchor="end" font-size="10" fill="#8494a7">27/09</text>
</g></svg>
